<?xml version="1.0" encoding="utf-8"?>
<!-- Generator: Adobe Illustrator 24.3.0, SVG Export Plug-In . SVG Version: 6.00 Build 0)  -->
<svg version="1.1" id="Layer_1" xmlns="http://www.w3.org/2000/svg" xmlns:xlink="http://www.w3.org/1999/xlink" x="0px" y="0px"
	 viewBox="0 0 841.89 180.44" style="enable-background:new 0 0 841.89 180.44;" xml:space="preserve">
<style type="text/css">
	.st0{fill:#4274B9;}
	.st1{fill:#ED1C24;}
	.st2{fill:#FFFFFF;}
</style>
<path class="st0" d="M242.56,80.7c3.9,10.12,6.45,17.24,8.12,22.25c3.34-5.23,7.23-10.68,15.8-22.14l15.69-21.14
	c3.45-4.67,7.9-7.89,14.02-7.89c5.78,0,10.24,3.33,11.02,10.23l7.34,65.42h-22.92l-2.56-25.92c-0.78-8.46-1.22-14.46-1.34-20.47
	c-3.34,5.23-7.23,10.91-14.13,20.59l-13.24,18.69c-5.23,7.34-9.12,8.34-14.68,8.34s-9.12-1-11.79-8.34l-6.68-18.8
	c-3.67-10.24-5.34-15.46-6.79-20.47c-2.22,5.45-5.23,12.57-8.68,20.47l-11.57,25.92h-22.59l30.71-65.42
	c3.34-6.9,9.12-10.23,14.91-10.23c5.9,0,9.34,3,11.24,7.89L242.56,80.7z"/>
<path class="st0" d="M389.71,124.65L351.33,83.7l-7.67,43.72h-20.92l10.79-61.74c1.67-9.9,8.23-13.91,15.13-13.91
	c2.78,0,5.56,0.67,8.57,4l38.38,40.94L403.4,53h20.91l-11.01,61.63c-1.78,9.9-8.35,14.02-15.02,14.02
	C395.16,128.65,392.83,127.98,389.71,124.65z"/>
<path class="st0" d="M448.18,127.43h-23.03L438.38,53h22.92L448.18,127.43z"/>
<path class="st0" d="M562.45,102.73c0,12.13-6.12,24.7-34.49,24.7h-65.42l8.01-45.28h65.86c3.78,0,7.34-1.44,7.34-5.9
	c0-2.89-2.78-3.89-5.68-3.89h-65.86L491.36,53h49.28c16.02,0,25.81,6.01,25.81,17.47c0,10.68-6.79,16.58-13.24,18.69
	C558.56,90.71,562.45,95.5,562.45,102.73z M490.8,98.06l-1.78,10.23h42.39c5.67,0,8.23-2.22,8.23-6.01c0-2.78-2-4.23-6.45-4.23
	H490.8z"/>
<path class="st0" d="M675.43,127.43h-30.82l-13.13-19.69h-35.38l-3.45,19.69h-23.03l6.68-38.05h64.75c7.68,0,14.35-3.67,14.35-9.68
	c0-4.9-4.23-7.34-11.35-7.34h-64.75L597.78,53h47.84c15.58,0,34.05,4.78,34.05,22.58c0,13.46-9.68,24.81-24.03,27.59
	c2.12,1.89,4.45,4.56,8.57,9.79L675.43,127.43z"/>
<path class="st0" d="M794.87,83.26c0,30.59-20.25,45.39-61.97,45.39c-32.15,0-48.4-10.01-48.4-31.6c0-30.59,20.25-45.28,61.97-45.28
	C778.63,51.78,794.87,61.68,794.87,83.26z M771.73,85.59c0-12.01-8.46-14.46-28.7-14.46c-29.93,0-35.38,4.56-35.38,23.7
	c0,12.02,8.57,14.46,28.59,14.46C766.17,109.29,771.73,104.62,771.73,85.59z"/>
<g>
	<path class="st1" d="M175.36,78.63c0,35.22-23.32,52.26-71.35,52.26c-37.02,0-55.72-11.53-55.72-36.38
		c0-35.22,23.31-52.13,71.35-52.13C156.66,42.38,175.36,53.78,175.36,78.63z"/>
	<polygon class="st2" points="122.77,102.39 165.72,111.84 134.12,76.92 153.24,42.23 154.15,41.4 116.56,57.52 93.17,31.67 
		92.7,30.55 94.96,66.78 54.24,84.25 96.63,93.44 96.65,93.82 96.49,93.96 96.88,97.52 99.48,139.06 101.12,136.41 101.15,136.7 
		102.81,133.71 122.57,101.91 	"/>
</g>
</svg>
