<?xml version="1.0" encoding="utf-8"?>
<!-- Generator: Adobe Illustrator 24.3.0, SVG Export Plug-In . SVG Version: 6.00 Build 0)  -->
<svg version="1.1" id="Layer_1" xmlns="http://www.w3.org/2000/svg" xmlns:xlink="http://www.w3.org/1999/xlink" x="0px" y="0px"
	 viewBox="0 0 841.89 595.28" style="enable-background:new 0 0 841.89 595.28;" xml:space="preserve">
<style type="text/css">
	.st0{fill:#4274B9;}
	.st1{fill:#ED1C24;}
	.st2{fill:#FFFFFF;}
	.st3{fill:none;stroke:#ED1C24;stroke-miterlimit:10;}
</style>
<path class="st0" d="M246.69,405.51c3.73,9.96,6.17,16.97,7.77,21.89c3.19-5.14,6.92-10.51,15.11-21.79l15-20.8
	c3.3-4.6,7.56-7.77,13.41-7.77c5.53,0,9.79,3.28,10.54,10.07l7.02,64.38h-21.92l-2.45-25.51c-0.75-8.32-1.17-14.23-1.28-20.15
	c-3.19,5.15-6.91,10.73-13.51,20.26l-12.66,18.39c-5,7.23-8.73,8.21-14.05,8.21c-5.32,0-8.73-0.99-11.28-8.21l-6.39-18.5
	c-3.51-10.07-5.11-15.22-6.49-20.15c-2.13,5.37-5,12.37-8.3,20.15l-11.07,25.51h-21.61l29.37-64.38
	c3.19-6.79,8.73-10.07,14.26-10.07c5.64,0,8.94,2.96,10.75,7.77L246.69,405.51z"/>
<path class="st0" d="M387.45,448.75l-36.71-40.29l-7.34,43.03h-20.01l10.32-60.76c1.6-9.74,7.88-13.68,14.48-13.68
	c2.66,0,5.32,0.66,8.19,3.94l36.71,40.29l7.45-43.03h20l-10.53,60.65c-1.7,9.74-7.98,13.8-14.37,13.8
	C392.67,452.69,390.43,452.03,387.45,448.75z"/>
<path class="st0" d="M443.37,451.49h-22.03l12.66-73.24h21.92L443.37,451.49z"/>
<path class="st0" d="M552.69,427.18c0,11.93-5.85,24.31-32.99,24.31h-62.58l7.66-44.56h63c3.62,0,7.02-1.42,7.02-5.8
	c0-2.84-2.66-3.83-5.43-3.83h-63l18.31-19.05h47.14c15.32,0,24.69,5.91,24.69,17.19c0,10.51-6.49,16.31-12.66,18.39
	C548.96,415.36,552.69,420.07,552.69,427.18z M484.15,422.59l-1.7,10.07h40.55c5.42,0,7.87-2.19,7.87-5.91
	c0-2.74-1.92-4.16-6.17-4.16H484.15z"/>
<path class="st0" d="M660.75,451.49h-29.48l-12.56-19.38h-33.84l-3.3,19.38h-22.03l6.39-37.44h61.93c7.34,0,13.73-3.61,13.73-9.53
	c0-4.82-4.04-7.23-10.85-7.23h-61.94l17.67-19.05h45.76c14.9,0,32.57,4.71,32.57,22.22c0,13.25-9.26,24.41-22.99,27.15
	c2.02,1.86,4.26,4.49,8.19,9.64L660.75,451.49z"/>
<path class="st0" d="M775,408.02c0,30.1-19.37,44.67-59.27,44.67c-30.76,0-46.29-9.85-46.29-31.09c0-30.1,19.37-44.55,59.27-44.55
	C759.47,377.04,775,386.79,775,408.02z M752.87,410.32c0-11.82-8.09-14.23-27.46-14.23c-28.63,0-33.84,4.49-33.84,23.32
	c0,11.83,8.19,14.23,27.35,14.23C747.55,433.64,752.87,429.04,752.87,410.32z"/>
<path class="st1" d="M182.41,403.46c0,34.66-22.3,51.43-68.25,51.43c-35.41,0-53.3-11.34-53.3-35.8c0-34.66,22.3-51.3,68.25-51.3
	C164.52,367.79,182.41,379.01,182.41,403.46z"/>
<polygon class="st2" points="132.12,426.85 173.2,436.15 142.97,401.79 161.26,367.65 162.13,366.83 126.17,382.7 103.79,357.26 
	103.34,356.16 105.51,391.81 66.56,409 107.1,418.04 107.13,418.41 106.98,418.56 107.35,422.06 109.83,462.93 111.4,460.33 
	111.43,460.62 113.01,457.67 131.92,426.38 "/>
<g>
	<path class="st3" d="M542.87,207.41c0,68.1-43.82,101.03-134.08,101.03c-69.57,0-104.72-22.28-104.72-70.33
		c0-68.1,43.81-100.78,134.08-100.78C507.73,137.33,542.87,159.37,542.87,207.41z"/>
	<polygon class="st1" points="444.06,253.36 524.77,271.63 465.37,204.11 501.31,137.05 503.02,135.44 432.38,166.61 388.42,116.63 
		387.53,114.47 391.79,184.52 315.26,218.28 394.92,236.05 394.97,236.78 394.67,237.06 395.4,243.94 400.28,324.24 403.37,319.13 
		403.43,319.69 406.53,313.89 443.68,252.43 	"/>
</g>
</svg>
